# xmcd CD database file
# Copyright (C) 1993-1998 Ti Kan
# 
# Track frame offsets:
#     182
#     17887
#     30285
#     41997
#     53835
#     66802
#     76612
#     87355
#     99477
#     111617
#     124492
#     137502
#     150615
#     162975
# 
# Disc length: 2331 seconds
# 
# Revision: 1
# Processed by: cddbd v1.4b41PL1 Copyright (c) Steve Scherf et al.
# Submitted via: DiscPlay 4.0.4
# 
DISCID=b509190e
DTITLE=Mel Tillis - The Country Store Collection
DYEAR=1900
DGENRE=
TTITLE0=Ruby, don't take your love to town
TTITLE1=Commercial affection
TTITLE2=Heaven everyday
TTITLE3=The arms of a fool
TTITLE4=Brand new mister me
TTITLE5=I ain't never
TTITLE6=neon rose
TTITLE7=O can't stop loving you
TTITLE8=sawmill
TTITLE9=midnight
TTITLE10=Memory maker
TTITLE11=Best way I know how
TTITLE12=Women in the back of my mind
TTITLE13=Welcome to my world
EXTD=
EXTT0=
EXTT1=
EXTT2=
EXTT3=
EXTT4=
EXTT5=
EXTT6=
EXTT7=
EXTT8=
EXTT9=
EXTT10=
EXTT11=
EXTT12=
EXTT13=
PLAYORDER=
